<?xml version="1.0" encoding="iso-8859-1"?>
<!-- Generator: Adobe Illustrator 19.0.0, SVG Export Plug-In . SVG Version: 6.00 Build 0)  -->
<svg version="1.1" id="Capa_1" xmlns="http://www.w3.org/2000/svg" xmlns:xlink="http://www.w3.org/1999/xlink" x="0px" y="0px"
	 viewBox="0 0 488.001 488.001" style="enable-background:new 0 0 488.001 488.001;" xml:space="preserve">
<g>
	<g>
		<path style="fill:#00EFD1;" d="M478.46,254.274v32.53c-0.003,18.633-15.107,33.737-33.74,33.74h-19.43l-0.97-0.09
			c0.11-1.27,0.16-2.55,0.16-3.85c-0.014-25.151-20.414-45.529-45.565-45.515c-25.132,0.014-45.502,20.384-45.515,45.515
			c0,1.3,0.05,2.6,0.17,3.87l-0.74,0.07H149.54l-0.73-0.07c0.12-1.27,0.17-2.57,0.17-3.87c0-25.151-20.389-45.54-45.54-45.54
			s-45.54,20.389-45.54,45.54c0,1.33,0.06,2.64,0.17,3.94H43.28c-18.633-0.003-33.737-15.107-33.74-33.74v-28.5
			c0.002-15.208,10.179-28.534,24.85-32.54l78.05-21.33l46.65-61.26c8.507-11.174,21.746-17.732,35.79-17.73h147.35
			c15.493-0.002,29.896,7.971,38.12,21.1l36.26,57.89l42.07,19.13C470.724,229.037,478.458,241.045,478.46,254.274z"/>
		<g>
			<path style="fill:#D4E1F4;" d="M424.48,316.604c0,1.3-0.05,2.58-0.16,3.85c-2.127,25.06-24.167,43.652-49.227,41.525
				c-22.102-1.876-39.637-19.403-41.523-41.505c-0.12-1.27-0.17-2.57-0.17-3.87c0.014-25.151,20.414-45.529,45.565-45.515
				C404.097,271.103,424.467,291.473,424.48,316.604L424.48,316.604z"/>
			<path style="fill:#D4E1F4;" d="M58.07,320.544c-0.11-1.3-0.17-2.61-0.17-3.94c0-25.151,20.389-45.54,45.54-45.54
				s45.54,20.389,45.54,45.54c0,1.3-0.05,2.6-0.17,3.87c-2.139,25.059-24.187,43.639-49.246,41.5
				C77.499,360.091,59.988,342.607,58.07,320.544L58.07,320.544z"/>
		</g>
	</g>
	<path style="fill:#083863;" d="M462.589,214.461l-39.216-17.885l-34.605-55.163c-10.005-16.048-27.627-25.749-46.538-25.619H194.88
		c-17.131-0.021-33.297,7.925-43.746,21.5l-44.6,58.478l-74.551,20.39C13.04,221.392-0.06,238.653,0,258.304v28.5
		c0,24.118,19.162,43.99,43.28,43.99h6.4c2.733,10.265,8.318,19.546,16.109,26.767c21.311,19.527,54.013,19.527,75.324,0
		c7.78-7.225,13.355-16.505,16.08-26.767h167.994c2.724,10.253,8.299,19.523,16.077,26.737c21.31,19.559,54.04,19.569,75.362,0.024
		c7.778-7.223,13.351-16.502,16.074-26.761h12.02c24.118,0,43.28-19.872,43.28-43.99v-32.53
		C488.071,237.168,478.135,221.6,462.589,214.461z M138.854,319.534l-0.009,0.1c-1.671,19.555-18.877,34.054-38.433,32.383
		c-17.216-1.471-30.879-15.111-32.378-32.324c-0.09-1.067-0.134-2.078-0.134-3.092c0-19.628,15.912-35.54,35.54-35.54
		s35.54,15.912,35.54,35.54C138.98,317.666,138.938,318.651,138.854,319.534z M414.354,319.618
		c-1.666,19.557-18.87,34.061-38.427,32.395c-17.239-1.468-30.916-15.138-32.393-32.376l-0.009-0.1
		c-0.084-0.883-0.126-1.868-0.126-2.93c0-19.628,15.912-35.54,35.54-35.54s35.54,15.912,35.54,35.54
		c0.001,1.055-0.039,2.031-0.124,3.011H414.354z M468,286.804c0,13.09-10.19,23.99-23.28,23.99h-10.577
		c-3.344-30.488-30.769-52.492-61.257-49.149c-25.878,2.838-46.311,23.271-49.149,49.149H158.643
		c-3.344-30.488-30.769-52.492-61.257-49.149c-25.878,2.838-46.311,23.271-49.149,49.149H43.28c-13.09,0-23.28-10.9-23.28-23.99
		v-28.5c-0.077-10.652,6.994-20.034,17.256-22.894l77.935-21.33c2.103-0.58,3.953-1.842,5.262-3.587l46.623-61.087
		c6.644-8.618,16.922-13.65,27.804-13.612h147.35c12.031-0.109,23.257,6.037,29.645,16.233l36.26,57.8
		c1.044,1.651,2.552,2.956,4.336,3.751l41.843,19.116c8.409,3.876,13.765,12.321,13.686,21.58V286.804z"/>
</g>
<g>
</g>
<g>
</g>
<g>
</g>
<g>
</g>
<g>
</g>
<g>
</g>
<g>
</g>
<g>
</g>
<g>
</g>
<g>
</g>
<g>
</g>
<g>
</g>
<g>
</g>
<g>
</g>
<g>
</g>
</svg>
