<?xml version="1.0" encoding="iso-8859-1"?>
<!-- Generator: Adobe Illustrator 19.0.0, SVG Export Plug-In . SVG Version: 6.00 Build 0)  -->
<svg version="1.1" id="Capa_1" xmlns="http://www.w3.org/2000/svg" xmlns:xlink="http://www.w3.org/1999/xlink" x="0px" y="0px"
	 viewBox="0 0 488.1 488.1" style="enable-background:new 0 0 488.1 488.1;" xml:space="preserve">
<path style="fill:#ED664C;" d="M478.5,254.35v32.5c0,18.6-15.1,33.7-33.7,33.7h-19.4l-1-0.1c0.1-1.3,0.2-2.6,0.2-3.9
	c0-25.1-20.4-45.5-45.5-45.5s-45.5,20.4-45.5,45.5c0,1.3,0.1,2.6,0.2,3.9l-0.7,0.1H149.5l-0.7-0.1c0.1-1.3,0.2-2.6,0.2-3.9
	c0-25.1-20.4-45.5-45.5-45.5S58,291.45,58,316.55c0,1.3,0.1,2.6,0.2,3.9H43.3c-18.6,0-33.7-15.1-33.7-33.7v-28.5
	c0-15.2,10.2-28.5,24.8-32.5l78.1-21.3l46.6-61.3c8.5-11.2,21.8-17.7,35.8-17.7h147.4c15.5,0,29.9,8,38.1,21.1l36.3,57.9l42.1,19.1
	C470.7,229.05,478.5,241.05,478.5,254.35z"/>
<g>
	<path style="fill:#FDC75B;" d="M424.5,316.65c0,1.3-0.1,2.6-0.2,3.9c-2,23.4-21.5,41.7-45.4,41.7c-23.8,0-43.4-18.3-45.4-41.7
		c-0.1-1.3-0.2-2.6-0.2-3.9c0-25.1,20.4-45.5,45.5-45.5S424.5,291.55,424.5,316.65z"/>
	<path style="fill:#FDC75B;" d="M58.1,320.65c-0.1-1.3-0.2-2.6-0.2-3.9c0-25.1,20.4-45.5,45.5-45.5s45.5,20.4,45.5,45.5
		c0,1.3-0.1,2.6-0.2,3.9c-2,23.3-21.5,41.7-45.4,41.7C79.6,362.25,60.1,343.95,58.1,320.65z"/>
</g>
<path d="M462.6,214.55l-39.2-17.9l-34.6-55.2c-10.1-16.2-27.5-25.6-46.5-25.6H194.9c-17.1,0-33.4,7.9-43.7,21.5l-44.7,58.5
	L32,216.25c-19,5.2-32,22.5-32,42.1v28.5c0,24.1,19.2,44,43.3,44h6.4c2.7,10,8.2,19.5,16.1,26.8c10.3,9.5,23.7,14.6,37.6,14.6
	c14,0,27.4-5.1,37.7-14.6c7.9-7.3,13.4-16.8,16.1-26.8h168c2.6,10,8.2,19.4,16.1,26.7c10.3,9.5,23.7,14.7,37.7,14.7
	s27.4-5.1,37.7-14.7c7.9-7.3,13.4-16.8,16.1-26.8h12c24.1,0,43.3-19.9,43.3-44v-32.5C488,237.25,478.2,221.55,462.6,214.55z
	 M138.9,319.55v0.1c-1.5,18.2-17.1,32.5-35.4,32.5s-33.8-14.3-35.4-32.4c-0.1-1.1-0.1-2.1-0.1-3.1c0-19.6,15.9-35.5,35.5-35.5
	s35.5,15.9,35.5,35.5C139,317.75,138.9,318.75,138.9,319.55z M414.4,319.65c-1.5,18.2-17.1,32.5-35.4,32.5s-33.9-14.3-35.4-32.5
	v-0.1c-0.1-0.9-0.1-1.9-0.1-2.9c0-19.6,15.9-35.5,35.5-35.5s35.5,15.9,35.5,35.5C414.5,317.75,414.4,318.65,414.4,319.65z
	 M468,286.85c0,13.1-10.2,24-23.3,24h-10.6c-3-28-26.6-49.5-55.2-49.5s-52.1,21.5-55.2,49.5H158.6c-3-28-26.6-49.5-55.2-49.5
	s-52.1,21.5-55.2,49.5h-5c-13,0-23.2-10.9-23.2-24v-28.5c0-10.7,7-20.1,17.3-22.9l77.9-21.3c2.1-0.6,3.9-1.8,5.3-3.6l46.6-61.1
	c6.6-8.6,16.9-13.6,27.8-13.6h147.3c12.1,0,23.2,6,29.6,16.2l36.3,57.8c1,1.7,2.5,2.9,4.3,3.8l41.8,19.1
	c8.5,3.8,13.7,12.3,13.7,21.6v32.5H468z"/>
<g>
</g>
<g>
</g>
<g>
</g>
<g>
</g>
<g>
</g>
<g>
</g>
<g>
</g>
<g>
</g>
<g>
</g>
<g>
</g>
<g>
</g>
<g>
</g>
<g>
</g>
<g>
</g>
<g>
</g>
</svg>
